<svg width="24" height="24" viewBox="0 0 24 24" fill="none" xmlns="http://www.w3.org/2000/svg"><path fill-rule="evenodd" clip-rule="evenodd" d="M2.4375 5.25C2.4375 4.93934 2.68934 4.6875 3 4.6875H21C21.3107 4.6875 21.5625 4.93934 21.5625 5.25V18C21.5625 18.3481 21.4242 18.6819 21.1781 18.9281C20.9319 19.1742 20.5981 19.3125 20.25 19.3125H3.75C3.40191 19.3125 3.06807 19.1742 2.82193 18.9281C2.57578 18.6819 2.4375 18.3481 2.4375 18V5.25ZM3.5625 5.8125V18C3.5625 18.0497 3.58226 18.0974 3.61742 18.1326C3.65258 18.1677 3.70027 18.1875 3.75 18.1875H20.25C20.2997 18.1875 20.3474 18.1677 20.3826 18.1326C20.4177 18.0974 20.4375 18.0497 20.4375 18V5.8125H3.5625Z" fill="currentColor"></path><path fill-rule="evenodd" clip-rule="evenodd" d="M2.58535 4.86991C2.79527 4.6409 3.15109 4.62543 3.3801 4.83535L12 12.7369L20.6199 4.83535C20.8489 4.62543 21.2047 4.6409 21.4147 4.86991C21.6246 5.09891 21.6091 5.45473 21.3801 5.66465L12.3801 13.9147C12.165 14.1118 11.835 14.1118 11.6199 13.9147L2.61991 5.66465C2.3909 5.45473 2.37543 5.09891 2.58535 4.86991Z" fill="currentColor"></path></svg>