<?xml version="1.0" encoding="UTF-8"?>
<svg id="Ebene_2" data-name="Ebene 2" xmlns="http://www.w3.org/2000/svg" viewBox="0 0 17.6 17.6">
  <g id="Ebene_1-2" data-name="Ebene 1">
    <path d="M8.81,0s0,0,0,0h0C3.95,0,0,3.95,0,8.8s3.94,8.8,8.79,8.8c0,0,0,0,0,0h0c4.85,0,8.8-3.95,8.8-8.8S13.66,0,8.81,0ZM16.58,8.3h-4c-.11-2.58-1.02-5.09-2.63-7.21,3.6.53,6.39,3.52,6.63,7.21ZM6.02,9.3h5.56c-.11,2.59-1.1,5.11-2.77,7.05-1.7-2.03-2.67-4.5-2.78-7.05ZM6.02,8.3c.11-2.59,1.1-5.11,2.77-7.05,1.7,2.04,2.67,4.5,2.78,7.05h-5.56ZM7.63,1.1c-1.58,2.04-2.5,4.59-2.61,7.2H1.03c.23-3.68,3.02-6.66,6.61-7.2ZM1.03,9.3h4c.11,2.58,1.02,5.09,2.63,7.21-3.6-.53-6.39-3.52-6.63-7.21ZM9.97,16.5c1.58-2.04,2.5-4.59,2.61-7.2h4c-.23,3.68-3.02,6.66-6.61,7.2Z"/>
  </g>
</svg>