<svg xmlns="http://www.w3.org/2000/svg" fill="none" viewBox="0 0 34 25"><path fill="currentColor" d="M28.599 0c.267 1.74.569 3.646.903 5.72a367.47 367.47 0 0 1 1.204 6.322l1.405 6.422a777.87 777.87 0 0 1 1.505 6.121h-6.522a334.902 334.902 0 0 1-3.312-7.727 154.394 154.394 0 0 1-3.11-8.128c-.937-2.743-1.706-5.285-2.309-7.626L19.066 0h9.533ZM10.035 0c.267 1.74.568 3.646.903 5.72a367.47 367.47 0 0 1 1.204 6.322l1.405 6.422a777.87 777.87 0 0 1 1.505 6.121H8.63a334.91 334.91 0 0 1-3.312-7.727 244.934 244.934 0 0 1-3.01-8.128C1.371 5.987.602 3.445 0 1.104L.602 0h9.433Z"></path></svg>