<svg width="24" height="24" viewBox="0 0 24 24" fill="none" xmlns="http://www.w3.org/2000/svg"><path fill-rule="evenodd" clip-rule="evenodd" d="M7.74915 3.59397C6.79982 3.7159 5.92734 4.17937 5.29483 4.89781C4.6618 5.61686 4.31256 6.54198 4.3125 7.49998M7.74915 3.59397C7.78855 3.58949 7.82836 3.59778 7.86271 3.61764C7.89743 3.63772 7.92469 3.66854 7.94037 3.70546L7.94108 3.70711L9.82456 8.10191C9.83674 8.13033 9.8417 8.16132 9.83901 8.19212C9.83631 8.22292 9.82604 8.25258 9.80911 8.27845L8.25011 10.6605C8.12601 10.8485 8.05264 11.0654 8.03715 11.2902C8.02161 11.5155 8.06479 11.741 8.16247 11.9447L8.66965 11.7014L8.16436 11.9486C8.99767 13.6522 10.3786 15.0269 12.0861 15.8524L12.09 15.8543C12.2949 15.9514 12.5216 15.9935 12.7477 15.9764C12.9731 15.9593 13.1903 15.884 13.3779 15.7578C13.3784 15.7575 13.3789 15.7571 13.3795 15.7568L15.724 14.1934C15.75 14.1761 15.7798 14.1655 15.8109 14.1627C15.8419 14.1598 15.8732 14.1648 15.9019 14.1771L20.2929 16.0589L20.2945 16.0596C20.3314 16.0753 20.3623 16.1026 20.3823 16.1373C20.4022 16.1716 20.4105 16.2114 20.406 16.2508C20.2841 17.2001 19.8206 18.0726 19.1022 18.7051C18.3831 19.3382 17.458 19.6874 16.5 19.6875C13.2677 19.6875 10.1677 18.4034 7.88214 16.1178C5.59654 13.8323 4.31251 10.7323 4.3125 7.49998M9.17621 11.4568C9.89854 12.9321 11.0946 14.1227 12.5731 14.8383C12.6011 14.8513 12.632 14.8569 12.6628 14.8546C12.6941 14.8522 12.7242 14.8418 12.7502 14.8242L12.7528 14.8225L15.0999 13.2574C15.2815 13.1363 15.4905 13.0624 15.708 13.0424C15.9254 13.0224 16.1444 13.057 16.345 13.143L20.7344 15.0242C20.7347 15.0243 20.735 15.0245 20.7354 15.0246C20.9963 15.1357 21.2142 15.3285 21.3562 15.574C21.4984 15.8199 21.5568 16.1053 21.5227 16.3873L21.5222 16.391C21.3661 17.6127 20.77 18.7357 19.8456 19.5495C18.9211 20.3634 17.7317 20.8124 16.5 20.8125C12.9693 20.8125 9.58322 19.4099 7.08664 16.9133C4.59006 14.4168 3.1875 11.0307 3.1875 7.49998C3.18756 6.26832 3.63657 5.07887 4.45044 4.15442C5.26432 3.22997 6.38725 2.63387 7.60898 2.47774L7.6127 2.47726C7.89466 2.44314 8.18007 2.50159 8.42593 2.64378C8.67144 2.78577 8.86424 3.0036 8.97536 3.26452C8.97551 3.26489 8.97567 3.26525 8.97582 3.26561L10.8586 7.65876C10.9439 7.85769 10.9786 8.07461 10.9597 8.29022C10.9408 8.50583 10.869 8.71342 10.7504 8.89452L9.19077 11.2776L9.18911 11.2801C9.17184 11.3062 9.16163 11.3363 9.15948 11.3675C9.15736 11.3982 9.16312 11.429 9.17621 11.4568Z" fill="currentColor"></path></svg>